<svg width="364" height="95" viewBox="0 0 364 95" fill="none" xmlns="http://www.w3.org/2000/svg">
<path d="M17.32 1.34399H64.936V14.784H47.752V72H33.832V14.784H17.32V1.34399Z" fill="white"/>
<path d="M62.112 85.144C61.344 85.784 59.904 86.648 57.792 87.736C55.744 88.824 53.216 89.784 50.208 90.616C47.2 91.448 43.872 91.832 40.224 91.768C34.656 91.64 29.664 90.648 25.248 88.792C20.896 86.872 17.184 84.28 14.112 81.016C11.104 77.752 8.8 74.008 7.2 69.784C5.6 65.56 4.8 61.048 4.8 56.248C4.8 50.872 5.6 45.944 7.2 41.464C8.864 36.984 11.2 33.112 14.208 29.848C17.28 26.584 20.928 24.056 25.152 22.264C29.376 20.472 34.048 19.576 39.168 19.576C43.904 19.576 48.096 20.216 51.744 21.496C55.392 22.776 58.368 24.152 60.672 25.624L55.2 38.776C53.6 37.56 51.456 36.312 48.768 35.032C46.144 33.688 43.104 33.016 39.648 33.016C36.96 33.016 34.368 33.592 31.872 34.744C29.44 35.832 27.264 37.4 25.344 39.448C23.488 41.496 22.016 43.896 20.928 46.648C19.84 49.336 19.296 52.28 19.296 55.48C19.296 58.872 19.776 61.976 20.736 64.792C21.76 67.608 23.2 70.04 25.056 72.088C26.912 74.072 29.12 75.608 31.68 76.696C34.304 77.784 37.248 78.328 40.512 78.328C44.288 78.328 47.52 77.72 50.208 76.504C52.896 75.288 54.944 74.008 56.352 72.664L62.112 85.144Z" fill="white"/>
<line x1="16" y1="4.39743" x2="66" y2="4.39743" stroke="#222831" stroke-width="3"/>
<path d="M81.512 82V38.672H73.704V30.16H100.776V38.672H93.032V82H81.512ZM111.63 82.64C109.753 82.64 108.174 82.192 106.894 81.296C105.614 80.4 104.654 79.2693 104.014 77.904C103.374 76.496 103.054 75.0667 103.054 73.616C103.054 71.312 103.502 69.3707 104.398 67.792C105.337 66.2133 106.553 64.8907 108.046 63.824C109.539 62.7573 111.182 61.8613 112.974 61.136C114.766 60.368 116.537 59.6853 118.286 59.088V55.376C118.286 54.736 118.222 54.1813 118.094 53.712C117.966 53.2 117.753 52.816 117.454 52.56C117.155 52.2613 116.707 52.112 116.11 52.112C115.513 52.112 115.043 52.24 114.702 52.496C114.403 52.752 114.19 53.1147 114.062 53.584C113.934 54.0107 113.849 54.5013 113.806 55.056L113.55 57.744L103.822 57.36C104.035 52.9227 105.209 49.6587 107.342 47.568C109.518 45.4347 112.761 44.368 117.07 44.368C120.825 44.368 123.619 45.4133 125.454 47.504C127.331 49.552 128.27 52.2187 128.27 55.504V72.784C128.27 74.32 128.291 75.664 128.334 76.816C128.419 77.968 128.505 78.9707 128.59 79.824C128.718 80.6773 128.825 81.4027 128.91 82H119.566C119.438 81.0187 119.289 79.952 119.118 78.8C118.947 77.648 118.819 76.9653 118.734 76.752C118.307 78.288 117.497 79.6533 116.302 80.848C115.15 82.0427 113.593 82.64 111.63 82.64ZM115.342 75.6C115.769 75.6 116.153 75.5147 116.494 75.344C116.878 75.1733 117.219 74.9387 117.518 74.64C117.817 74.3413 118.073 74.0427 118.286 73.744V63.632C117.433 64.144 116.643 64.6773 115.918 65.232C115.193 65.744 114.574 66.32 114.062 66.96C113.55 67.6 113.145 68.304 112.846 69.072C112.59 69.7973 112.462 70.6293 112.462 71.568C112.462 72.8053 112.718 73.7867 113.23 74.512C113.742 75.2373 114.446 75.6 115.342 75.6ZM134.452 82V45.008H144.884V48.72C146.249 47.3547 147.657 46.288 149.108 45.52C150.601 44.752 152.158 44.368 153.78 44.368C155.316 44.368 156.574 44.752 157.556 45.52C158.58 46.2453 159.348 47.2693 159.86 48.592C160.372 49.872 160.628 51.344 160.628 53.008V82H150.26V54.48C150.26 53.584 150.11 52.9013 149.812 52.432C149.513 51.9627 148.958 51.728 148.148 51.728C147.721 51.728 147.209 51.856 146.612 52.112C146.057 52.3253 145.481 52.6453 144.884 53.072V82H134.452ZM166.953 82V45.008H177.385V82H166.953ZM166.889 38.736V31.504H177.385V38.736H166.889ZM191.443 82.64C189.565 82.64 187.987 82.192 186.707 81.296C185.427 80.4 184.467 79.2693 183.827 77.904C183.187 76.496 182.867 75.0667 182.867 73.616C182.867 71.312 183.315 69.3707 184.211 67.792C185.149 66.2133 186.365 64.8907 187.859 63.824C189.352 62.7573 190.995 61.8613 192.787 61.136C194.579 60.368 196.349 59.6853 198.099 59.088V55.376C198.099 54.736 198.035 54.1813 197.907 53.712C197.779 53.2 197.565 52.816 197.267 52.56C196.968 52.2613 196.52 52.112 195.923 52.112C195.325 52.112 194.856 52.24 194.515 52.496C194.216 52.752 194.003 53.1147 193.875 53.584C193.747 54.0107 193.661 54.5013 193.619 55.056L193.363 57.744L183.635 57.36C183.848 52.9227 185.021 49.6587 187.155 47.568C189.331 45.4347 192.573 44.368 196.883 44.368C200.637 44.368 203.432 45.4133 205.267 47.504C207.144 49.552 208.083 52.2187 208.083 55.504V72.784C208.083 74.32 208.104 75.664 208.147 76.816C208.232 77.968 208.317 78.9707 208.403 79.824C208.531 80.6773 208.637 81.4027 208.723 82H199.378C199.251 81.0187 199.101 79.952 198.931 78.8C198.76 77.648 198.632 76.9653 198.547 76.752C198.12 78.288 197.309 79.6533 196.115 80.848C194.963 82.0427 193.405 82.64 191.443 82.64ZM195.155 75.6C195.581 75.6 195.965 75.5147 196.307 75.344C196.691 75.1733 197.032 74.9387 197.331 74.64C197.629 74.3413 197.885 74.0427 198.099 73.744V63.632C197.245 64.144 196.456 64.6773 195.731 65.232C195.005 65.744 194.387 66.32 193.875 66.96C193.363 67.6 192.957 68.304 192.659 69.072C192.403 69.7973 192.275 70.6293 192.275 71.568C192.275 72.8053 192.531 73.7867 193.043 74.512C193.555 75.2373 194.259 75.6 195.155 75.6ZM246.063 82.768C242.138 82.768 239.023 82.064 236.719 80.656C234.458 79.2053 232.858 77.2 231.919 74.64C230.98 72.0373 230.511 68.9867 230.511 65.488V46.8C230.511 43.216 230.98 40.144 231.919 37.584C232.858 34.9813 234.458 32.976 236.719 31.568C239.023 30.16 242.138 29.456 246.063 29.456C249.903 29.456 252.89 30.096 255.023 31.376C257.199 32.6133 258.735 34.3627 259.631 36.624C260.527 38.8853 260.975 41.488 260.975 44.432V48.912H249.775V43.728C249.775 42.704 249.711 41.7227 249.583 40.784C249.498 39.8453 249.199 39.0773 248.687 38.48C248.175 37.84 247.3 37.52 246.063 37.52C244.868 37.52 243.972 37.84 243.375 38.48C242.82 39.12 242.458 39.9307 242.287 40.912C242.159 41.8507 242.095 42.8533 242.095 43.92V68.304C242.095 69.456 242.18 70.5227 242.351 71.504C242.564 72.4427 242.948 73.2107 243.503 73.808C244.1 74.3627 244.954 74.64 246.063 74.64C247.258 74.64 248.111 74.3413 248.623 73.744C249.135 73.104 249.455 72.2933 249.583 71.312C249.711 70.3307 249.775 69.328 249.775 68.304V62.864H260.975V67.344C260.975 70.288 260.527 72.9333 259.631 75.28C258.778 77.584 257.263 79.4187 255.087 80.784C252.954 82.1067 249.946 82.768 246.063 82.768ZM278.862 82.64C276.216 82.64 273.912 82.192 271.95 81.296C270.03 80.4 268.536 79.056 267.47 77.264C266.446 75.472 265.934 73.232 265.934 70.544V56.464C265.934 53.776 266.446 51.536 267.47 49.744C268.536 47.952 270.03 46.608 271.95 45.712C273.912 44.816 276.216 44.368 278.862 44.368C281.507 44.368 283.79 44.816 285.71 45.712C287.672 46.608 289.187 47.952 290.254 49.744C291.32 51.536 291.854 53.776 291.854 56.464V70.544C291.854 73.232 291.32 75.472 290.254 77.264C289.187 79.056 287.672 80.4 285.71 81.296C283.79 82.192 281.507 82.64 278.862 82.64ZM278.926 75.728C279.608 75.728 280.142 75.5573 280.526 75.216C280.91 74.832 281.166 74.32 281.294 73.68C281.464 72.9973 281.55 72.1867 281.55 71.248V55.76C281.55 54.8213 281.464 54.032 281.294 53.392C281.166 52.7093 280.91 52.1973 280.526 51.856C280.142 51.472 279.608 51.28 278.926 51.28C278.243 51.28 277.71 51.472 277.326 51.856C276.942 52.1973 276.664 52.7093 276.494 53.392C276.323 54.032 276.238 54.8213 276.238 55.76V71.248C276.238 72.1867 276.323 72.9973 276.494 73.68C276.664 74.32 276.942 74.832 277.326 75.216C277.71 75.5573 278.243 75.728 278.926 75.728ZM305.639 82.64C302.908 82.64 300.796 81.68 299.303 79.76C297.81 77.84 297.063 75.0027 297.063 71.248V55.952C297.063 53.648 297.383 51.6427 298.023 49.936C298.663 48.1867 299.623 46.8213 300.903 45.84C302.183 44.8587 303.762 44.368 305.639 44.368C307.004 44.368 308.306 44.6453 309.543 45.2C310.78 45.712 311.911 46.416 312.935 47.312V30.16H323.367V82H312.935V79.12C311.783 80.2293 310.588 81.104 309.351 81.744C308.114 82.3413 306.876 82.64 305.639 82.64ZM310.183 75.984C310.524 75.984 310.93 75.8987 311.399 75.728C311.911 75.5573 312.423 75.3227 312.935 75.024V51.664C312.508 51.4507 312.06 51.2587 311.591 51.088C311.122 50.9173 310.674 50.832 310.247 50.832C309.308 50.832 308.626 51.2373 308.199 52.048C307.772 52.816 307.559 53.7547 307.559 54.864V71.888C307.559 72.656 307.644 73.36 307.815 74C307.986 74.5973 308.263 75.088 308.647 75.472C309.031 75.8133 309.543 75.984 310.183 75.984ZM341.923 82.64C339.235 82.64 336.931 82.1707 335.01 81.232C333.091 80.2507 331.619 78.8427 330.595 77.008C329.571 75.1307 329.059 72.8907 329.059 70.288V56.72C329.059 54.0747 329.571 51.8347 330.595 50C331.619 48.1653 333.091 46.7787 335.01 45.84C336.973 44.8587 339.277 44.368 341.923 44.368C344.653 44.368 346.915 44.8373 348.707 45.776C350.541 46.7147 351.907 48.1013 352.803 49.936C353.741 51.7707 354.211 54.032 354.211 56.72V64.144H339.363V71.248C339.363 72.1867 339.469 72.9547 339.683 73.552C339.896 74.1493 340.195 74.576 340.579 74.832C340.963 75.088 341.411 75.216 341.923 75.216C342.435 75.216 342.883 75.1093 343.267 74.896C343.693 74.64 344.013 74.256 344.227 73.744C344.483 73.232 344.611 72.528 344.611 71.632V67.728H354.211V71.312C354.211 75.0667 353.123 77.904 350.947 79.824C348.771 81.7013 345.763 82.64 341.923 82.64ZM339.363 59.28H344.611V55.568C344.611 54.5867 344.483 53.8187 344.227 53.264C344.013 52.7093 343.693 52.3253 343.267 52.112C342.883 51.8987 342.413 51.792 341.859 51.792C341.347 51.792 340.899 51.92 340.515 52.176C340.173 52.432 339.896 52.88 339.683 53.52C339.469 54.1173 339.363 54.992 339.363 56.144V59.28Z" fill="white"/>
</svg>
