<svg width="73" height="95" viewBox="0 0 73 95" fill="none" xmlns="http://www.w3.org/2000/svg">
<path d="M17.32 1.34399H64.936V14.784H47.752V72H33.832V14.784H17.32V1.34399Z" fill="#1E1E1E"/>
<path d="M62.112 85.144C61.344 85.784 59.904 86.648 57.792 87.736C55.744 88.824 53.216 89.784 50.208 90.616C47.2 91.448 43.872 91.832 40.224 91.768C34.656 91.64 29.664 90.648 25.248 88.792C20.896 86.872 17.184 84.28 14.112 81.016C11.104 77.752 8.8 74.008 7.2 69.784C5.6 65.56 4.8 61.048 4.8 56.248C4.8 50.872 5.6 45.944 7.2 41.464C8.864 36.984 11.2 33.112 14.208 29.848C17.28 26.584 20.928 24.056 25.152 22.264C29.376 20.472 34.048 19.576 39.168 19.576C43.904 19.576 48.096 20.216 51.744 21.496C55.392 22.776 58.368 24.152 60.672 25.624L55.2 38.776C53.6 37.56 51.456 36.312 48.768 35.032C46.144 33.688 43.104 33.016 39.648 33.016C36.96 33.016 34.368 33.592 31.872 34.744C29.44 35.832 27.264 37.4 25.344 39.448C23.488 41.496 22.016 43.896 20.928 46.648C19.84 49.336 19.296 52.28 19.296 55.48C19.296 58.872 19.776 61.976 20.736 64.792C21.76 67.608 23.2 70.04 25.056 72.088C26.912 74.072 29.12 75.608 31.68 76.696C34.304 77.784 37.248 78.328 40.512 78.328C44.288 78.328 47.52 77.72 50.208 76.504C52.896 75.288 54.944 74.008 56.352 72.664L62.112 85.144Z" fill="#1E1E1E"/>
<line x1="17" y1="4.39743" x2="67" y2="4.39743" stroke="white" stroke-width="3"/>
</svg>
