<svg width="144" height="144" viewBox="0 0 144 144" fill="none" xmlns="http://www.w3.org/2000/svg">
<circle cx="72" cy="72" r="72" fill="#00ADB5"/>
<path d="M48.32 23.344H95.936V36.784H78.752V94H64.832V36.784H48.32V23.344Z" fill="white"/>
<path d="M93.112 107.144C92.344 107.784 90.904 108.648 88.792 109.736C86.744 110.824 84.216 111.784 81.208 112.616C78.2 113.448 74.872 113.832 71.224 113.768C65.656 113.64 60.664 112.648 56.248 110.792C51.896 108.872 48.184 106.28 45.112 103.016C42.104 99.752 39.8 96.008 38.2 91.784C36.6 87.56 35.8 83.048 35.8 78.248C35.8 72.872 36.6 67.944 38.2 63.464C39.864 58.984 42.2 55.112 45.208 51.848C48.28 48.584 51.928 46.056 56.152 44.264C60.376 42.472 65.048 41.576 70.168 41.576C74.904 41.576 79.096 42.216 82.744 43.496C86.392 44.776 89.368 46.152 91.672 47.624L86.2 60.776C84.6 59.56 82.456 58.312 79.768 57.032C77.144 55.688 74.104 55.016 70.648 55.016C67.96 55.016 65.368 55.592 62.872 56.744C60.44 57.832 58.264 59.4 56.344 61.448C54.488 63.496 53.016 65.896 51.928 68.648C50.84 71.336 50.296 74.28 50.296 77.48C50.296 80.872 50.776 83.976 51.736 86.792C52.76 89.608 54.2 92.04 56.056 94.088C57.912 96.072 60.12 97.608 62.68 98.696C65.304 99.784 68.248 100.328 71.512 100.328C75.288 100.328 78.52 99.72 81.208 98.504C83.896 97.288 85.944 96.008 87.352 94.664L93.112 107.144Z" fill="white"/>
<line x1="24" y1="26.5" x2="126" y2="26.5" stroke="#00ADB5" stroke-width="3"/>
</svg>
