<svg width="24" height="24" viewBox="0 0 24 24" fill="none" xmlns="http://www.w3.org/2000/svg">
<g clip-path="url(#clip0_25_10139)">
<path d="M17.4999 8.99912C16.6048 8.99896 15.7235 9.22056 14.9349 9.64412C14.8629 9.45445 14.7349 9.29118 14.5679 9.17598C14.4009 9.06077 14.2028 8.99909 13.9999 8.99912H9.99994C9.73472 8.99912 9.48037 9.10447 9.29283 9.29201C9.1053 9.47955 8.99994 9.7339 8.99994 9.99912V21.9991C8.99994 22.2643 9.1053 22.5187 9.29283 22.7062C9.48037 22.8938 9.73472 22.9991 9.99994 22.9991H13.9999C14.2652 22.9991 14.5195 22.8938 14.707 22.7062C14.8946 22.5187 14.9999 22.2643 14.9999 21.9991V16.4991C14.9999 16.2339 15.1053 15.9795 15.2928 15.792C15.4804 15.6045 15.7347 15.4991 15.9999 15.4991C16.2652 15.4991 16.5195 15.6045 16.707 15.792C16.8946 15.9795 16.9999 16.2339 16.9999 16.4991V21.9991C16.9999 22.2643 17.1053 22.5187 17.2928 22.7062C17.4804 22.8938 17.7347 22.9991 17.9999 22.9991H21.9999C22.2652 22.9991 22.5195 22.8938 22.707 22.7062C22.8946 22.5187 22.9999 22.2643 22.9999 21.9991V14.4991C22.9981 13.041 22.418 11.6431 21.387 10.6121C20.3559 9.58103 18.9581 9.00097 17.4999 8.99912V8.99912ZM20.9999 20.9991H18.9999V16.4991C18.9999 15.7035 18.6839 14.9404 18.1213 14.3778C17.5587 13.8152 16.7956 13.4991 15.9999 13.4991C15.2043 13.4991 14.4412 13.8152 13.8786 14.3778C13.316 14.9404 12.9999 15.7035 12.9999 16.4991V20.9991H10.9999V10.9991H12.9999V11.7021C12.9998 11.9094 13.0642 12.1116 13.184 12.2807C13.3038 12.4498 13.4732 12.5775 13.6688 12.6462C13.8644 12.7148 14.0765 12.721 14.2757 12.6638C14.4749 12.6067 14.6515 12.489 14.7809 12.3271C15.2299 11.7572 15.8456 11.3417 16.542 11.1387C17.2385 10.9356 17.981 10.9551 18.6659 11.1944C19.3507 11.4337 19.9438 11.8809 20.3622 12.4735C20.7807 13.0661 21.0036 13.7747 20.9999 14.5001V20.9991ZM6.99994 8.99912H2.99994C2.73472 8.99912 2.48037 9.10447 2.29283 9.29201C2.1053 9.47955 1.99994 9.7339 1.99994 9.99912V21.9991C1.99994 22.2643 2.1053 22.5187 2.29283 22.7062C2.48037 22.8938 2.73472 22.9991 2.99994 22.9991H6.99994C7.26516 22.9991 7.51951 22.8938 7.70705 22.7062C7.89458 22.5187 7.99994 22.2643 7.99994 21.9991V9.99912C7.99994 9.7339 7.89458 9.47955 7.70705 9.29201C7.51951 9.10447 7.26516 8.99912 6.99994 8.99912ZM5.99994 20.9991H3.99994V10.9991H5.99994V20.9991ZM5.01494 1.54212C4.57703 1.51544 4.13828 1.57816 3.72538 1.72648C3.31249 1.87479 2.93411 2.10559 2.61327 2.40481C2.29243 2.70404 2.03585 3.06544 1.85915 3.467C1.68245 3.86857 1.58933 4.30189 1.58545 4.74059C1.58158 5.1793 1.66704 5.6142 1.83662 6.01882C2.0062 6.42344 2.25637 6.78931 2.57187 7.09416C2.88738 7.399 3.26163 7.63644 3.67184 7.79202C4.08205 7.9476 4.51963 8.01806 4.95794 7.99912H4.98594C5.4241 8.02415 5.86276 7.95971 6.27521 7.80973C6.68766 7.65974 7.06525 7.42736 7.38498 7.12673C7.70471 6.82609 7.95989 6.46351 8.13496 6.06108C8.31003 5.65864 8.40134 5.22477 8.40331 4.7859C8.40528 4.34703 8.31788 3.91236 8.14643 3.50837C7.97498 3.10437 7.72307 2.73951 7.40605 2.43602C7.08903 2.13253 6.71354 1.89676 6.30246 1.74308C5.89137 1.5894 5.4533 1.52102 5.01494 1.54212V1.54212ZM4.98594 5.99912H4.95794C4.78498 6.02023 4.60951 6.00412 4.44329 5.95185C4.27708 5.89959 4.12396 5.81238 3.99421 5.69608C3.86446 5.57978 3.76109 5.43708 3.69102 5.27755C3.62095 5.11802 3.5858 4.94534 3.58794 4.77112C3.58794 4.02412 4.14794 3.54212 5.01494 3.54212C5.18955 3.51914 5.36706 3.5338 5.53553 3.58512C5.70401 3.63644 5.85954 3.72323 5.99169 3.83965C6.12384 3.95607 6.22954 4.09943 6.30168 4.26009C6.37382 4.42076 6.41073 4.595 6.40994 4.77112C6.40994 5.51712 5.84994 5.99912 4.98494 5.99912H4.98594Z" fill="black"/>
<path d="M17.4999 8.99912C16.6048 8.99896 15.7235 9.22056 14.9349 9.64412C14.8629 9.45445 14.7349 9.29118 14.5679 9.17598C14.4009 9.06077 14.2028 8.99909 13.9999 8.99912H9.99994C9.73472 8.99912 9.48037 9.10447 9.29283 9.29201C9.1053 9.47955 8.99994 9.7339 8.99994 9.99912V21.9991C8.99994 22.2643 9.1053 22.5187 9.29283 22.7062C9.48037 22.8938 9.73472 22.9991 9.99994 22.9991H13.9999C14.2652 22.9991 14.5195 22.8938 14.707 22.7062C14.8946 22.5187 14.9999 22.2643 14.9999 21.9991V16.4991C14.9999 16.2339 15.1053 15.9795 15.2928 15.792C15.4804 15.6045 15.7347 15.4991 15.9999 15.4991C16.2652 15.4991 16.5195 15.6045 16.707 15.792C16.8946 15.9795 16.9999 16.2339 16.9999 16.4991V21.9991C16.9999 22.2643 17.1053 22.5187 17.2928 22.7062C17.4804 22.8938 17.7347 22.9991 17.9999 22.9991H21.9999C22.2652 22.9991 22.5195 22.8938 22.707 22.7062C22.8946 22.5187 22.9999 22.2643 22.9999 21.9991V14.4991C22.9981 13.041 22.418 11.6431 21.387 10.6121C20.3559 9.58103 18.9581 9.00097 17.4999 8.99912V8.99912ZM20.9999 20.9991H18.9999V16.4991C18.9999 15.7035 18.6839 14.9404 18.1213 14.3778C17.5587 13.8152 16.7956 13.4991 15.9999 13.4991C15.2043 13.4991 14.4412 13.8152 13.8786 14.3778C13.316 14.9404 12.9999 15.7035 12.9999 16.4991V20.9991H10.9999V10.9991H12.9999V11.7021C12.9998 11.9094 13.0642 12.1116 13.184 12.2807C13.3038 12.4498 13.4732 12.5775 13.6688 12.6462C13.8644 12.7148 14.0765 12.721 14.2757 12.6638C14.4749 12.6067 14.6515 12.489 14.7809 12.3271C15.2299 11.7572 15.8456 11.3417 16.542 11.1387C17.2385 10.9356 17.981 10.9551 18.6659 11.1944C19.3507 11.4337 19.9438 11.8809 20.3622 12.4735C20.7807 13.0661 21.0036 13.7747 20.9999 14.5001V20.9991ZM6.99994 8.99912H2.99994C2.73472 8.99912 2.48037 9.10447 2.29283 9.29201C2.1053 9.47955 1.99994 9.7339 1.99994 9.99912V21.9991C1.99994 22.2643 2.1053 22.5187 2.29283 22.7062C2.48037 22.8938 2.73472 22.9991 2.99994 22.9991H6.99994C7.26516 22.9991 7.51951 22.8938 7.70705 22.7062C7.89458 22.5187 7.99994 22.2643 7.99994 21.9991V9.99912C7.99994 9.7339 7.89458 9.47955 7.70705 9.29201C7.51951 9.10447 7.26516 8.99912 6.99994 8.99912ZM5.99994 20.9991H3.99994V10.9991H5.99994V20.9991ZM5.01494 1.54212C4.57703 1.51544 4.13828 1.57816 3.72538 1.72648C3.31249 1.87479 2.93411 2.10559 2.61327 2.40481C2.29243 2.70404 2.03585 3.06544 1.85915 3.467C1.68245 3.86857 1.58933 4.30189 1.58545 4.74059C1.58158 5.1793 1.66704 5.6142 1.83662 6.01882C2.0062 6.42344 2.25637 6.78931 2.57187 7.09416C2.88738 7.399 3.26163 7.63644 3.67184 7.79202C4.08205 7.9476 4.51963 8.01806 4.95794 7.99912H4.98594C5.4241 8.02415 5.86276 7.95971 6.27521 7.80973C6.68766 7.65974 7.06525 7.42736 7.38498 7.12673C7.70471 6.82609 7.95989 6.46351 8.13496 6.06108C8.31003 5.65864 8.40134 5.22477 8.40331 4.7859C8.40528 4.34703 8.31788 3.91236 8.14643 3.50837C7.97498 3.10437 7.72307 2.73951 7.40605 2.43602C7.08903 2.13253 6.71354 1.89676 6.30246 1.74308C5.89137 1.5894 5.4533 1.52102 5.01494 1.54212V1.54212ZM4.98594 5.99912H4.95794C4.78498 6.02023 4.60951 6.00412 4.44329 5.95185C4.27708 5.89959 4.12396 5.81238 3.99421 5.69608C3.86446 5.57978 3.76109 5.43708 3.69102 5.27755C3.62095 5.11802 3.5858 4.94534 3.58794 4.77112C3.58794 4.02412 4.14794 3.54212 5.01494 3.54212C5.18955 3.51914 5.36706 3.5338 5.53553 3.58512C5.70401 3.63644 5.85954 3.72323 5.99169 3.83965C6.12384 3.95607 6.22954 4.09943 6.30168 4.26009C6.37382 4.42076 6.41073 4.595 6.40994 4.77112C6.40994 5.51712 5.84994 5.99912 4.98494 5.99912H4.98594Z" fill="#EEEEEE" fill-opacity="0.75"/>
</g>
<defs>
<clipPath id="clip0_25_10139">
<rect width="24" height="24" fill="white"/>
</clipPath>
</defs>
</svg>
